<?xml version="1.0" standalone="no"?>
<!DOCTYPE svg PUBLIC "-//W3C//DTD SVG 20010904//EN"
 "http://www.w3.org/TR/2001/REC-SVG-20010904/DTD/svg10.dtd">
<svg version="1.0" xmlns="http://www.w3.org/2000/svg"
 width="250.000000pt" height="250.000000pt" viewBox="0 0 250.000000 250.000000"
 preserveAspectRatio="xMidYMid meet">
<metadata>
Created by potrace 1.11, written by Peter Selinger 2001-2013
</metadata>
<g transform="translate(0.000000,250.000000) scale(0.100000,-0.100000)"
fill="#000000" stroke="none">
<path d="M0 1250 l0 -1250 1250 0 1250 0 0 1250 0 1250 -1250 0 -1250 0 0
-1250z m1482 539 c169 -37 257 -132 266 -289 4 -63 0 -85 -18 -128 -40 -93
-141 -164 -271 -191 -61 -13 -231 -17 -248 -6 -8 4 -11 -38 -11 -134 0 -131 1
-142 23 -166 13 -16 42 -31 72 -39 45 -11 50 -15 50 -41 l0 -28 -295 0 -295 0
0 28 c0 25 5 29 50 42 96 28 90 -1 93 441 3 379 2 389 -18 415 -14 18 -37 29
-75 38 -51 11 -55 14 -55 41 l0 28 340 0 c214 0 358 -4 392 -11z"/>
<path d="M1225 1705 c-25 -24 -25 -25 -25 -229 0 -200 0 -205 22 -220 57 -40
149 -6 188 70 23 44 25 60 25 174 0 108 -3 130 -20 160 -40 68 -143 93 -190
45z"/>
</g>
</svg>
